# xmcd
#
# Track frame offsets:
#	150
#	24833
#	58528
#	84991
#	116345
#	159263
#	198560
#	225888
#	247953
#	278519
#
# Disc length: 4227 seconds
# Revision: 0
# Processed by: cddbd v1.5.2PL0 Copyright (c) Steve Scherf et al.
# Submitted via: dBpowerAMP V12.0
#
DISCID=6610810a
DTITLE=Latimore - Live In Vienna
DYEAR=2010
DGENRE=Soul
TTITLE0=Take Me To The Mountain Top
TTITLE1=Something 'Bout 'Cha 
TTITLE2=Keep the Home Fires Burnin'
TTITLE3=Dig A Little Deeper
TTITLE4=Stomy Monday - Everyday I Have The Blues
TTITLE5=I Get Lifted
TTITLE6=City Life
TTITLE7=My Give A Damn Gave Out
TTITLE8=Around The World
TTITLE9=Let's Straighten It Out
EXTD=
EXTT0=
EXTT1=
EXTT2=
EXTT3=
EXTT4=
EXTT5=
EXTT6=
EXTT7=
EXTT8=
EXTT9=
PLAYORDER=
